HIERARCHY
ROOT joint_0
{
	OFFSET 0.000000 0.000000 0.000000
	CHANNELS 6 Xposition Yposition Zposition Zrotation Yrotation Xrotation 
	JOINT joint_1
	{
		OFFSET 6.004005 -1.946999 100.587036
		CHANNELS 3 Zrotation Yrotation Xrotation
		JOINT joint_2
		{
			OFFSET -4.601006 -0.824997 91.925903
			CHANNELS 3 Zrotation Yrotation Xrotation
			JOINT joint_3
			{
				OFFSET -5.420998 -1.130005 91.774048
				CHANNELS 3 Zrotation Yrotation Xrotation
				JOINT joint_4
				{
					OFFSET 4.308998 -3.777992 123.473999
					CHANNELS 3 Zrotation Yrotation Xrotation
					JOINT joint_5
					{
						OFFSET 25.565002 -6.305008 79.437988
						CHANNELS 3 Zrotation Yrotation Xrotation
						End Site
						{
							OFFSET 0.000000 0.000000 0.000000
						}
					}
				}
				JOINT joint_6
				{
					OFFSET -1.750000 -28.655998 68.557983
					CHANNELS 3 Zrotation Yrotation Xrotation
					JOINT joint_7
					{
						OFFSET -17.692001 -116.544006 -17.244019
						CHANNELS 3 Zrotation Yrotation Xrotation
						JOINT joint_8
						{
							OFFSET 27.063004 -23.640991 -266.895020
							CHANNELS 3 Zrotation Yrotation Xrotation
							JOINT joint_9
							{
								OFFSET 40.722000 -15.761017 -232.488953
								CHANNELS 3 Zrotation Yrotation Xrotation
								End Site
								{
									OFFSET 0.000000 0.000000 0.000000
								}
							}
						}
					}
				}
				JOINT joint_10
				{
					OFFSET 6.593002 24.457001 69.892944
					CHANNELS 3 Zrotation Yrotation Xrotation
					JOINT joint_11
					{
						OFFSET 24.311996 114.920002 -19.872925
						CHANNELS 3 Zrotation Yrotation Xrotation
						JOINT joint_12
						{
							OFFSET 21.081001 15.319000 -268.037964
							CHANNELS 3 Zrotation Yrotation Xrotation
							JOINT joint_13
							{
								OFFSET 27.794006 -8.947001 -234.744080
								CHANNELS 3 Zrotation Yrotation Xrotation
								End Site
								{
									OFFSET 0.000000 0.000000 0.000000
								}
							}
						}
					}
				}
			}
		}
	}
	JOINT joint_14
	{
		OFFSET -6.627998 -80.520004 -98.790039
		CHANNELS 3 Zrotation Yrotation Xrotation
		JOINT joint_15
		{
			OFFSET -43.638000 -13.751999 -502.538971
			CHANNELS 3 Zrotation Yrotation Xrotation
			JOINT joint_16
			{
				OFFSET -39.532999 -9.912994 -398.071007
				CHANNELS 3 Zrotation Yrotation Xrotation
				JOINT joint_17
				{
					OFFSET 174.940004 -34.660995 -75.688002
					CHANNELS 3 Zrotation Yrotation Xrotation
					End Site
					{
						OFFSET 0.000000 0.000000 0.000000
					}
				}
			}
		}
	}
	JOINT joint_18
	{
		OFFSET 12.591003 79.842003 -98.765015
		CHANNELS 3 Zrotation Yrotation Xrotation
		JOINT joint_19
		{
			OFFSET -39.080002 -1.297001 -503.101013
			CHANNELS 3 Zrotation Yrotation Xrotation
			JOINT joint_20
			{
				OFFSET -51.570000 -0.514000 -396.815987
				CHANNELS 3 Zrotation Yrotation Xrotation
				JOINT joint_21
				{
					OFFSET 178.987999 -11.521999 -73.244003
					CHANNELS 3 Zrotation Yrotation Xrotation
					End Site
					{
						OFFSET 0.000000 0.000000 0.000000
					}
				}
			}
		}
	}
}
MOTION
Frames: 13
Frame Time: 0.016667
-1280.077881 925.585083 1090.267944 -1.601487 -4.053666 -0.676023 1.248632 3.269592 0.938275 1.235806 -0.726568 -0.120714 1.277587 0.854658 0.118258 0.189572 0.197255 -0.538876 0.000000 0.000000 0.000000 2.024483 3.247435 0.487742 -0.284500 3.096051 3.764682 -0.965610 0.330392 -5.214549 0.000000 0.000000 0.000000 2.898791 0.734544 0.622229 -0.118926 1.058250 -3.370162 0.738588 1.142002 7.343483 0.000000 0.000000 0.000000 0.311993 -4.536180 -0.909644 -0.409246 12.772345 1.138833 0.020063 -2.780485 -0.540905 0.000000 0.000000 0.000000 0.407971 -5.521209 4.688642 0.604207 12.348396 1.578200 0.786509 -1.114075 0.242860 0.000000 0.000000 0.000000 
-1280.262695 925.355652 1090.005005 -1.678052 -4.104663 -0.659036 1.371253 3.503304 0.957344 1.361374 -0.836929 -0.096485 1.404574 0.984869 0.102991 0.191207 0.047802 -0.580674 0.000000 0.000000 0.000000 1.879900 3.337496 0.747033 -0.338977 3.256118 3.480822 -0.952076 -0.078266 -5.290648 0.000000 0.000000 0.000000 2.621067 0.684086 1.125801 -0.124720 1.287292 -3.962752 0.742934 0.814838 7.253860 0.000000 0.000000 0.000000 0.326453 -4.608348 -0.913321 -0.407272 13.007481 1.151456 0.024310 -2.849761 -0.552732 0.000000 0.000000 0.000000 0.443111 -5.597623 4.657526 0.628966 12.620079 1.644748 0.818308 -1.151952 0.252934 0.000000 0.000000 0.000000 
-1279.865479 925.674011 1090.078003 -1.706737 -4.114335 -0.723649 1.436682 4.806906 1.351801 1.420746 -1.071434 -0.214439 1.487100 1.263466 0.201571 0.159119 -1.052838 -0.753164 0.000000 0.000000 0.000000 1.466507 3.452731 0.545302 -0.342397 3.291539 3.400400 -0.844652 -1.217196 -5.143780 0.000000 0.000000 0.000000 2.724932 0.613086 1.894041 -0.092246 1.607656 -5.087635 0.731692 -0.491343 6.670390 0.000000 0.000000 0.000000 0.309796 -4.671176 -0.873136 -0.433341 13.203505 1.196425 0.003167 -2.913669 -0.574261 0.000000 0.000000 0.000000 0.462767 -5.712431 4.671954 0.638733 12.934219 1.725939 0.838646 -1.210650 0.257126 0.000000 0.000000 0.000000 
-1279.072388 926.436707 1090.380005 -1.698822 -4.125104 -0.856583 1.481610 6.953867 2.048829 1.454824 -1.304509 -0.437807 1.556879 1.542168 0.369245 0.094160 -2.926510 -1.017560 0.000000 0.000000 0.000000 0.778072 3.596996 0.043003 -0.310501 3.248390 3.417156 -0.658451 -2.914496 -4.771224 0.000000 0.000000 0.000000 3.175367 0.549668 2.886485 -0.052935 2.022065 -6.629200 0.685126 -2.539544 5.632631 0.000000 0.000000 0.000000 0.266207 -4.694613 -0.792513 -0.481755 13.370974 1.264211 -0.038528 -2.975438 -0.604064 0.000000 0.000000 0.000000 0.470896 -5.822441 4.724533 0.637385 13.278014 1.821902 0.851200 -1.283440 0.257325 0.000000 0.000000 0.000000 
-1277.281250 926.879700 1090.931030 -1.694290 -3.699711 -0.895700 1.501431 8.678280 2.558163 1.469045 -1.387611 -0.588216 1.593427 1.661941 0.475061 0.034699 -4.872237 -1.320844 0.000000 0.000000 0.000000 0.164916 3.800687 -0.278515 -0.301975 3.314566 3.390578 -0.506121 -4.717323 -4.618699 0.000000 0.000000 0.000000 3.602818 0.639599 3.673695 -0.002300 2.477092 -7.758597 0.635319 -4.673378 4.782678 0.000000 0.000000 0.000000 0.263678 -5.128386 -0.820630 -0.518489 13.519323 1.358173 -0.064794 -3.013982 -0.622787 0.000000 0.000000 0.000000 0.478772 -6.351273 4.712434 0.626730 13.610982 1.871629 0.848271 -1.325075 0.253397 0.000000 0.000000 0.000000 
-1273.904297 926.319702 1091.858032 -1.695611 -2.443696 -0.712240 1.458205 9.107879 2.532009 1.421911 -1.397572 -0.586649 1.546468 1.677711 0.471485 0.015718 -6.547915 -1.694644 0.000000 0.000000 0.000000 0.000611 4.038247 0.009545 -0.352930 3.601776 3.217619 -0.491368 -6.144980 -5.092877 0.000000 0.000000 0.000000 3.618534 0.950592 3.867523 0.097560 2.881595 -7.849346 0.654625 -6.330310 4.796310 0.000000 0.000000 0.000000 0.353568 -6.319459 -1.077494 -0.513922 13.542973 1.478249 -0.045851 -2.957269 -0.603696 0.000000 0.000000 0.000000 0.488696 -7.594268 4.557774 0.598871 13.712394 1.816538 0.813430 -1.260048 0.243737 0.000000 0.000000 0.000000 
-1269.173096 925.042419 1093.151978 -1.674840 -0.518189 -0.364498 1.348463 8.694929 2.145927 1.309748 -1.334884 -0.482880 1.418193 1.587064 0.393214 0.019061 -8.207378 -2.147884 0.000000 0.000000 0.000000 0.169373 4.307955 0.733600 -0.433673 4.051219 2.947127 -0.570706 -7.356927 -6.022477 0.000000 0.000000 0.000000 3.336938 1.436143 3.643206 0.245346 3.269445 -7.234522 0.741869 -7.735523 5.458591 0.000000 0.000000 0.000000 0.509812 -8.098524 -1.517386 -0.478670 13.428224 1.621784 0.005250 -2.785661 -0.548378 0.000000 0.000000 0.000000 0.496675 -9.391625 4.294542 0.554422 13.583954 1.679854 0.750931 -1.075452 0.230748 0.000000 0.000000 0.000000 
-1263.899658 923.873108 1094.323975 -1.709335 1.456489 0.004612 1.243578 8.159514 1.666790 1.221149 -1.251207 -0.348256 1.310621 1.457433 0.297019 0.021795 -9.520496 -2.501189 0.000000 0.000000 0.000000 0.433875 4.725595 1.232475 -0.525736 4.618698 2.707991 -0.616399 -9.350150 -7.075905 0.000000 0.000000 0.000000 3.027570 2.019905 3.605862 0.408977 3.803205 -6.631143 0.812739 -9.823030 5.974073 0.000000 0.000000 0.000000 0.696782 -10.058237 -2.005341 -0.440725 13.627659 1.788147 0.061814 -2.694474 -0.506500 0.000000 0.000000 0.000000 0.541296 -11.501698 4.014317 0.531239 14.067845 1.531514 0.705650 -0.940492 0.221029 0.000000 0.000000 0.000000 
-1258.673340 923.414124 1095.001953 -1.931948 3.198558 0.257830 1.203249 7.911220 1.324296 1.204220 -1.227848 -0.268089 1.283777 1.400321 0.222166 0.016363 -10.306663 -2.661723 0.000000 0.000000 0.000000 0.663158 5.378722 1.173883 -0.623569 5.313756 2.503160 -0.530877 -13.037778 -8.064871 0.000000 0.000000 0.000000 2.925563 2.693383 4.124775 0.547146 4.616846 -6.483798 0.780452 -13.498372 5.773287 0.000000 0.000000 0.000000 0.920823 -12.129827 -2.424760 -0.406815 14.538208 2.013422 0.122196 -2.823111 -0.506372 0.000000 0.000000 0.000000 0.674627 -13.835142 3.844698 0.581041 15.613050 1.350708 0.722297 -0.888537 0.229910 0.000000 0.000000 0.000000 
-1253.189453 923.359924 1095.370972 -2.326350 4.926875 0.431106 1.202726 7.723489 1.024041 1.228646 -1.256717 -0.211954 1.301949 1.380518 0.143676 0.012273 -10.706349 -2.705033 0.000000 0.000000 0.000000 0.911365 6.201664 0.927020 -0.727545 6.161533 2.137153 -0.364237 -18.015173 -9.090406 0.000000 0.000000 0.000000 2.960553 3.510909 4.869300 0.632995 5.625298 -6.419899 0.660687 -18.398758 5.191414 0.000000 0.000000 0.000000 1.207270 -14.445121 -2.813409 -0.359001 15.970214 2.289497 0.194958 -3.044935 -0.519546 0.000000 0.000000 0.000000 0.896239 -16.447429 3.766871 0.690351 17.851352 1.106269 0.779890 -0.760242 0.258847 0.000000 0.000000 0.000000 
-1247.176147 923.397400 1095.651978 -2.600564 6.163080 0.644429 1.212582 7.716494 0.599791 1.339927 -1.253666 -0.074316 1.403900 1.337523 0.064484 0.010447 -10.508733 -2.615819 0.000000 0.000000 0.000000 0.947349 7.068120 0.447849 -0.864388 7.011117 1.544520 -0.219155 -23.113413 -10.072494 0.000000 0.000000 0.000000 3.038977 4.356924 5.529453 0.631774 6.552753 -6.019287 0.484218 -23.311636 4.484385 0.000000 0.000000 0.000000 1.484999 -16.221855 -3.191422 -0.372291 17.517838 2.453774 0.179452 -3.352129 -0.586004 0.000000 0.000000 0.000000 1.145964 -19.142144 3.550960 0.714578 21.272403 1.083629 0.763539 -0.726185 0.250922 0.000000 0.000000 0.000000 
-1240.651611 923.265320 1096.073975 -2.602471 6.457784 0.914375 1.239581 8.155213 0.142043 1.624522 -1.246093 0.088065 1.687288 1.351621 -0.006858 0.007935 -9.556804 -2.363038 0.000000 0.000000 0.000000 0.625425 7.899935 -0.370588 -1.128742 7.772243 0.670874 -0.198450 -27.796776 -11.004710 0.000000 0.000000 0.000000 2.947777 5.110838 6.002940 0.567387 7.185816 -4.938357 0.265408 -27.663537 3.618144 0.000000 0.000000 0.000000 1.718044 -16.865302 -3.452112 -0.512874 19.026451 2.348700 -0.020083 -3.766700 -0.748347 0.000000 0.000000 0.000000 1.443897 -21.786691 3.109894 0.542048 26.444034 1.514954 0.558998 -0.581827 0.173923 0.000000 0.000000 0.000000 
-1233.714844 923.070740 1096.561035 -2.603402 5.917890 1.056908 1.286790 9.172326 -0.053050 2.144883 -1.387589 0.118311 2.243643 1.494933 -0.079406 -0.004204 -7.966780 -1.923517 0.000000 0.000000 0.000000 0.014373 8.693179 -1.348330 -1.570560 8.509625 -0.662103 -0.326011 -32.392082 -11.923821 0.000000 0.000000 0.000000 2.692825 5.815661 6.330863 0.469098 7.567562 -3.223991 0.007618 -31.905586 2.516148 0.000000 0.000000 0.000000 1.962818 -16.603511 -3.408679 -0.714829 20.626554 2.005376 -0.357964 -4.203656 -0.969321 0.000000 0.000000 0.000000 1.941684 -24.281394 2.658275 0.257965 32.900772 2.296979 0.190008 0.277438 0.076201 0.000000 0.000000 0.000000 
